<?xml version="1.0" encoding="UTF-8"?>
<svg xmlns="http://www.w3.org/2000/svg" width="192px" height="192px" viewBox="0 0 192 192" version="1.1">
<g id="surface1">
<path style=" stroke:none;fill-rule:nonzero;fill:rgb(23.137255%,50.980395%,96.470588%);fill-opacity:1;" d="M 35.554688 0 L 156.445312 0 C 176.082031 0 192 15.917969 192 35.554688 L 192 156.445312 C 192 176.082031 176.082031 192 156.445312 192 L 35.554688 192 C 15.917969 192 0 176.082031 0 156.445312 L 0 35.554688 C 0 15.917969 15.917969 0 35.554688 0 Z M 35.554688 0 "/>
<path style=" stroke:none;fill-rule:nonzero;fill:rgb(100%,100%,100%);fill-opacity:1;" d="M 93.847656 79.183594 C 94.578125 79.828125 95.226562 80.46875 95.820312 81.246094 C 96.433594 80.988281 96.742188 80.679688 97.15625 80.167969 C 99.660156 77.292969 103.472656 75.683594 107.199219 75.199219 C 108.097656 75.148438 108.992188 75.140625 109.890625 75.144531 C 110.070312 75.144531 110.070312 75.144531 110.257812 75.144531 C 112.136719 75.15625 113.910156 75.25 115.734375 75.734375 C 115.871094 75.769531 116.007812 75.800781 116.148438 75.835938 C 119.523438 76.703125 122.519531 78.132812 125.332031 80.179688 C 125.519531 80.308594 125.707031 80.441406 125.902344 80.574219 C 127.414062 81.671875 128.71875 82.984375 130.035156 84.300781 C 130.125 84.394531 130.21875 84.484375 130.3125 84.582031 C 131.359375 85.628906 132.375 86.691406 133.332031 87.820312 C 133.511719 88.027344 133.6875 88.230469 133.867188 88.4375 C 134.035156 88.636719 134.207031 88.835938 134.378906 89.035156 C 134.46875 89.140625 134.5625 89.246094 134.65625 89.355469 C 135.214844 90.007812 135.761719 90.667969 136.300781 91.332031 C 136.925781 92.105469 137.578125 92.851562 138.25 93.585938 C 138.589844 93.957031 138.917969 94.335938 139.25 94.714844 C 142.6875 98.648438 146.824219 102.003906 152 103.289062 C 152.175781 103.335938 152.355469 103.378906 152.535156 103.425781 C 154.109375 103.800781 155.605469 103.914062 157.222656 103.898438 C 157.34375 103.898438 157.460938 103.898438 157.585938 103.898438 C 159.433594 103.886719 161.101562 103.75 162.84375 103.109375 C 163.015625 103.054688 163.1875 102.996094 163.363281 102.9375 C 164.578125 102.496094 165.664062 101.996094 166.277344 100.8125 C 166.382812 100.570312 166.480469 100.332031 166.578125 100.089844 C 166.6875 99.847656 166.6875 99.847656 166.800781 99.601562 C 167.171875 97.984375 167.007812 96.679688 166.210938 95.226562 C 165.601562 94.390625 164.816406 93.964844 163.910156 93.511719 C 163.175781 93.425781 162.53125 93.375 161.890625 93.765625 C 161.328125 94.652344 161.054688 95.679688 160.890625 96.710938 C 160.773438 96.710938 160.652344 96.710938 160.535156 96.710938 C 160.441406 94.75 160.644531 92.929688 161.957031 91.378906 C 162.59375 90.785156 163.242188 90.617188 164.101562 90.566406 C 165.925781 90.640625 167.738281 91.363281 169.066406 92.621094 C 169.164062 92.714844 169.257812 92.804688 169.359375 92.898438 C 170.875 94.5 171.230469 96.402344 171.234375 98.523438 C 171.234375 98.679688 171.238281 98.839844 171.238281 99.003906 C 171.25 103.09375 169.261719 106.699219 166.503906 109.605469 C 162.484375 113.398438 156.800781 115.476562 151.398438 116.199219 C 151.238281 116.222656 151.074219 116.246094 150.90625 116.265625 C 144.425781 117.128906 137.960938 116.429688 131.539062 115.429688 C 131.230469 115.382812 130.921875 115.335938 130.613281 115.289062 C 124.175781 114.328125 118.058594 112.28125 112.179688 109.511719 C 111.902344 109.378906 111.902344 109.378906 111.617188 109.246094 C 108.132812 107.59375 104.695312 105.726562 101.6875 103.289062 C 101.527344 103.164062 101.367188 103.035156 101.203125 102.90625 C 99.382812 101.445312 97.480469 99.914062 96.179688 97.957031 C 96.179688 97.839844 96.179688 97.722656 96.179688 97.601562 C 96.058594 97.601562 95.941406 97.601562 95.820312 97.601562 C 95.785156 97.71875 95.75 97.839844 95.714844 97.964844 C 95.375 98.683594 94.886719 99.183594 94.34375 99.753906 C 94.234375 99.875 94.121094 99.992188 94.003906 100.113281 C 90.210938 104.054688 85.371094 106.710938 80.535156 109.15625 C 80.3125 109.265625 80.3125 109.265625 80.089844 109.378906 C 74.257812 112.308594 67.808594 114.238281 61.378906 115.3125 C 61.222656 115.335938 61.066406 115.363281 60.90625 115.390625 C 58.148438 115.859375 55.390625 116.183594 52.601562 116.394531 C 52.085938 116.4375 52.085938 116.4375 51.582031 116.535156 C 50.902344 116.640625 50.234375 116.652344 49.550781 116.660156 C 49.410156 116.660156 49.269531 116.660156 49.125 116.664062 C 40.398438 116.722656 31.371094 115.359375 24.890625 108.976562 C 22.261719 106.191406 20.78125 102.519531 20.746094 98.722656 C 20.738281 98.539062 20.734375 98.359375 20.730469 98.167969 C 20.710938 96.03125 21.445312 94.210938 22.894531 92.632812 C 24.347656 91.253906 26.136719 90.585938 28.121094 90.621094 C 28.894531 90.691406 29.449219 90.871094 30.042969 91.378906 C 31.375 93.058594 31.527344 94.632812 31.464844 96.710938 C 31.347656 96.710938 31.230469 96.710938 31.109375 96.710938 C 31.089844 96.609375 31.070312 96.503906 31.050781 96.398438 C 30.832031 95.3125 30.585938 94.242188 29.6875 93.511719 C 28.898438 93.3125 28.179688 93.394531 27.4375 93.714844 C 26.183594 94.492188 25.507812 95.492188 25.066406 96.890625 C 24.78125 98.496094 25.269531 99.71875 25.957031 101.15625 C 26.015625 101.332031 26.074219 101.507812 26.132812 101.6875 C 26.449219 101.882812 26.449219 101.882812 26.84375 102.042969 C 27 102.125 27.15625 102.210938 27.316406 102.292969 C 31.484375 104.453125 36.636719 104.390625 41.070312 103 C 46.445312 101.191406 50.933594 97.296875 54.398438 92.890625 C 54.769531 92.429688 55.15625 91.992188 55.554688 91.554688 C 56.105469 90.953125 56.632812 90.335938 57.144531 89.699219 C 57.828125 88.855469 58.542969 88.050781 59.277344 87.253906 C 59.628906 86.871094 59.972656 86.480469 60.3125 86.085938 C 68.335938 76.898438 83.082031 70.226562 93.847656 79.183594 Z M 93.847656 79.183594 "/>
</g>
</svg>
