<?xml version="1.0" encoding="UTF-8"?>
<svg xmlns="http://www.w3.org/2000/svg" width="512px" height="512px" viewBox="0 0 512 512" version="1.1">
<g id="surface1">
<path style=" stroke:none;fill-rule:nonzero;fill:rgb(23.137255%,50.980395%,96.470588%);fill-opacity:1;" d="M 94.816406 0 L 417.183594 0 C 469.550781 0 512 42.449219 512 94.816406 L 512 417.183594 C 512 469.550781 469.550781 512 417.183594 512 L 94.816406 512 C 42.449219 512 0 469.550781 0 417.183594 L 0 94.816406 C 0 42.449219 42.449219 0 94.816406 0 Z M 94.816406 0 "/>
<path style=" stroke:none;fill-rule:nonzero;fill:rgb(100%,100%,100%);fill-opacity:1;" d="M 250.253906 211.152344 C 252.214844 212.871094 253.933594 214.585938 255.527344 216.652344 C 257.152344 215.96875 257.984375 215.144531 259.082031 213.777344 C 265.765625 206.113281 275.925781 201.816406 285.867188 200.535156 C 288.257812 200.390625 290.640625 200.375 293.035156 200.386719 C 293.523438 200.386719 293.523438 200.386719 294.023438 200.386719 C 299.035156 200.414062 303.761719 200.667969 308.621094 201.957031 C 308.984375 202.046875 309.351562 202.140625 309.726562 202.234375 C 318.726562 204.542969 326.714844 208.355469 334.222656 213.808594 C 334.722656 214.15625 335.222656 214.507812 335.738281 214.867188 C 339.765625 217.785156 343.25 221.289062 346.753906 224.800781 C 347.003906 225.046875 347.25 225.292969 347.503906 225.550781 C 350.289062 228.34375 353 231.179688 355.554688 234.191406 C 356.027344 234.738281 356.5 235.285156 356.972656 235.832031 C 357.429688 236.363281 357.886719 236.890625 358.339844 237.421875 C 358.585938 237.707031 358.828125 237.992188 359.082031 238.285156 C 360.566406 240.023438 362.027344 241.777344 363.464844 243.554688 C 365.140625 245.617188 366.878906 247.601562 368.671875 249.5625 C 369.570312 250.554688 370.453125 251.5625 371.328125 252.578125 C 380.496094 263.066406 391.535156 272.007812 405.332031 275.4375 C 405.804688 275.558594 406.277344 275.679688 406.761719 275.804688 C 410.964844 276.800781 414.949219 277.101562 419.257812 277.066406 C 419.578125 277.066406 419.902344 277.0625 420.230469 277.0625 C 425.15625 277.035156 429.601562 276.664062 434.25 274.964844 C 434.707031 274.808594 435.167969 274.65625 435.636719 274.5 C 438.878906 273.324219 441.765625 271.984375 443.40625 268.828125 C 443.683594 268.191406 443.949219 267.550781 444.207031 266.902344 C 444.5 266.257812 444.5 266.257812 444.800781 265.601562 C 445.792969 261.296875 445.355469 257.816406 443.222656 253.933594 C 441.601562 251.707031 439.511719 250.570312 437.097656 249.363281 C 435.136719 249.132812 433.421875 249.003906 431.703125 250.042969 C 430.203125 252.410156 429.480469 255.144531 429.035156 257.894531 C 428.722656 257.894531 428.410156 257.894531 428.089844 257.894531 C 427.847656 252.667969 428.390625 247.816406 431.882812 243.675781 C 433.582031 242.097656 435.308594 241.640625 437.601562 241.511719 C 442.46875 241.707031 447.308594 243.636719 450.84375 246.992188 C 451.101562 247.234375 451.355469 247.476562 451.621094 247.726562 C 455.671875 252.003906 456.617188 257.070312 456.621094 262.726562 C 456.628906 263.148438 456.632812 263.574219 456.640625 264.011719 C 456.664062 274.921875 451.359375 284.535156 444.015625 292.285156 C 433.292969 302.398438 418.132812 307.933594 403.734375 309.867188 C 403.300781 309.925781 402.863281 309.984375 402.417969 310.046875 C 385.136719 312.339844 367.890625 310.476562 350.773438 307.8125 C 349.949219 307.6875 349.128906 307.5625 348.304688 307.441406 C 331.128906 304.871094 314.820312 299.417969 299.140625 292.03125 C 298.402344 291.683594 298.402344 291.683594 297.648438 291.328125 C 288.351562 286.914062 279.183594 281.941406 271.171875 275.4375 C 270.742188 275.097656 270.316406 274.761719 269.875 274.414062 C 265.019531 270.523438 259.949219 266.4375 256.472656 261.214844 C 256.472656 260.902344 256.472656 260.589844 256.472656 260.265625 C 256.160156 260.265625 255.847656 260.265625 255.527344 260.265625 C 255.429688 260.589844 255.335938 260.910156 255.238281 261.242188 C 254.332031 263.152344 253.035156 264.492188 251.585938 266.015625 C 251.285156 266.328125 250.988281 266.644531 250.683594 266.96875 C 240.566406 277.476562 227.65625 284.566406 214.753906 291.082031 C 214.167969 291.378906 214.167969 291.378906 213.570312 291.683594 C 198.015625 299.492188 180.820312 304.640625 163.675781 307.496094 C 163.257812 307.566406 162.84375 307.636719 162.417969 307.710938 C 155.058594 308.957031 147.710938 309.824219 140.265625 310.386719 C 138.898438 310.5 138.898438 310.5 137.550781 310.765625 C 135.742188 311.039062 133.960938 311.078125 132.136719 311.089844 C 131.761719 311.09375 131.386719 311.09375 131 311.097656 C 107.730469 311.257812 83.65625 307.628906 66.371094 290.605469 C 59.367188 283.179688 55.414062 273.382812 55.320312 263.257812 C 55.304688 262.773438 55.292969 262.285156 55.277344 261.785156 C 55.230469 256.082031 57.191406 251.226562 61.050781 247.023438 C 64.925781 243.34375 69.699219 241.5625 74.992188 241.652344 C 77.050781 241.84375 78.535156 242.320312 80.117188 243.675781 C 83.671875 248.152344 84.078125 252.355469 83.910156 257.894531 C 83.597656 257.894531 83.285156 257.894531 82.964844 257.894531 C 82.910156 257.621094 82.859375 257.347656 82.804688 257.0625 C 82.21875 254.164062 81.566406 251.316406 79.171875 249.363281 C 77.066406 248.832031 75.148438 249.054688 73.164062 249.90625 C 69.824219 251.976562 68.023438 254.644531 66.84375 258.371094 C 66.085938 262.65625 67.386719 265.921875 69.214844 269.75 C 69.371094 270.21875 69.527344 270.6875 69.6875 271.171875 C 70.527344 271.683594 70.527344 271.683594 71.585938 272.117188 C 72.003906 272.339844 72.417969 272.558594 72.847656 272.785156 C 83.960938 278.546875 97.695312 278.375 109.519531 274.664062 C 123.855469 269.84375 135.824219 259.453125 145.066406 247.707031 C 146.050781 246.476562 147.085938 245.3125 148.148438 244.148438 C 149.617188 242.539062 151.015625 240.894531 152.386719 239.199219 C 154.207031 236.949219 156.113281 234.800781 158.078125 232.675781 C 159.011719 231.652344 159.921875 230.617188 160.828125 229.566406 C 182.230469 205.058594 221.550781 187.269531 250.253906 211.152344 Z M 250.253906 211.152344 "/>
</g>
</svg>
