<svg width="512" height="512" viewBox="0 0 512 512" fill="none" xmlns="http://www.w3.org/2000/svg">
  <rect width="512" height="512" rx="100" fill="#3B82F6"/>
  
  <!-- Waiter Jacket/Body -->
  <path d="M120 420C120 360 160 320 256 320C352 320 392 360 392 420V460H120V420Z" fill="#1F2937"/>
  <path d="M256 320L216 460H296L256 320Z" fill="#F3F4F6"/> <!-- White shirt/tuxedo front -->
  
  <!-- Bowtie -->
  <path d="M236 340L256 350L276 340L276 360L256 350L236 360V340Z" fill="#EF4444"/>
  <circle cx="256" cy="350" r="4" fill="#B91C1C"/>

  <!-- Cat Head -->
  <circle cx="256" cy="220" r="100" fill="#F3F4F6"/>
  
  <!-- Cat Ears (Pointy ears from favicon) -->
  <path d="M170 160L150 80L230 145Z" fill="#F3F4F6"/> <!-- Left ear -->
  <path d="M180 150L170 100L215 140Z" fill="#FEF2F2"/> <!-- Left inner ear -->

  <path d="M342 160L362 80L282 145Z" fill="#F3F4F6"/> <!-- Right ear -->
  <path d="M332 150L342 100L297 140Z" fill="#FEF2F2"/> <!-- Right inner ear -->
  
  <!-- Eyes -->
  <circle cx="216" cy="220" r="15" fill="#1E40AF"/>
  <circle cx="296" cy="220" r="15" fill="#1E40AF"/>
  <circle cx="220" cy="215" r="5" fill="white"/>
  <circle cx="300" cy="215" r="5" fill="white"/>
  
  <!-- Nose -->
  <path d="M256 245L246 235H266L256 245Z" fill="#F87171"/>
  
  <!-- Mouth -->
  <path d="M240 255C240 265 256 265 256 255C256 265 272 265 272 255" stroke="#1E40AF" stroke-width="4" stroke-linecap="round"/>
  
  <!-- Whiskers -->
  <path d="M180 240L130 230" stroke="#94A3B8" stroke-width="3" stroke-linecap="round"/>
  <path d="M180 250L130 255" stroke="#94A3B8" stroke-width="3" stroke-linecap="round"/>
  <path d="M332 240L382 230" stroke="#94A3B8" stroke-width="3" stroke-linecap="round"/>
  <path d="M332 250L382 255" stroke="#94A3B8" stroke-width="3" stroke-linecap="round"/>
  
  <!-- Cheeks -->
  <circle cx="180" cy="260" r="10" fill="#FECACA" fill-opacity="0.5"/>
  <circle cx="332" cy="260" r="10" fill="#FECACA" fill-opacity="0.5"/>
  
  <!-- Tray (Waitstaff element) -->
  <rect x="360" y="280" width="120" height="10" rx="5" fill="#94A3B8"/>
  <path d="M420 290L400 360H440L420 290Z" fill="#1F2937"/> <!-- Arm holding tray -->
</svg>