<?xml version="1.0" encoding="UTF-8"?>
<svg xmlns="http://www.w3.org/2000/svg" xmlns:xlink="http://www.w3.org/1999/xlink" width="512px" height="512px" viewBox="0 0 512 512" version="1.1">
<g id="surface1">
    <rect xmlns="http://www.w3.org/2000/svg" width="512" height="512" rx="100" fill="#3B82F6"/>
<path style=" stroke:none;fill-rule:evenodd;fill:rgb(100%,100%,100%);fill-opacity:1;" d="M 295.9375 339.40625 C 272.109375 305.882812 255.335938 267.25 255.335938 231.457031 C 255.335938 267.234375 238.558594 305.882812 214.730469 339.40625 C 192.730469 368.753906 157.496094 382.695312 120.511719 366.140625 C 75.328125 342.398438 112.300781 289.742188 135.824219 287.09375 C 116.464844 300.109375 105.578125 332.515625 140.886719 343.160156 C 168.992188 350.722656 187.933594 316.375 192.046875 283.335938 C 198.175781 251.882812 193.214844 211.507812 195.800781 177.695312 C 198.492188 141.699219 234.996094 126.472656 255.335938 146.050781 C 275.671875 126.472656 312.1875 141.710938 314.867188 177.695312 C 317.453125 211.496094 312.492188 251.882812 318.621094 283.335938 C 322.734375 316.375 341.675781 350.722656 369.78125 343.160156 C 405.089844 332.515625 394.203125 300.109375 374.84375 287.09375 C 398.367188 289.742188 435.351562 342.398438 390.15625 366.140625 C 353.171875 382.695312 317.9375 368.753906 295.9375 339.40625 Z M 295.9375 339.40625 "/>
</g>
</svg>
