<?xml version="1.0" encoding="UTF-8"?>
<svg xmlns="http://www.w3.org/2000/svg" xmlns:xlink="http://www.w3.org/1999/xlink" width="192px" height="192px" viewBox="0 0 192 192" version="1.1">
<g id="surface1">
    <path xmlns="http://www.w3.org/2000/svg" style=" stroke:none;fill-rule:nonzero;fill:rgb(23.137255%,50.980395%,96.470588%);fill-opacity:1;" d="M 35.554688 0 L 156.445312 0 C 176.082031 0 192 15.917969 192 35.554688 L 192 156.445312 C 192 176.082031 176.082031 192 156.445312 192 L 35.554688 192 C 15.917969 192 0 176.082031 0 156.445312 L 0 35.554688 C 0 15.917969 15.917969 0 35.554688 0 Z M 35.554688 0 "/>
    <path style=" stroke:none;fill-rule:evenodd;fill:rgb(100%,100%,100%);fill-opacity:1;" d="M 110.976562 127.277344 C 102.039062 114.707031 95.75 100.21875 95.75 86.796875 C 95.75 100.214844 89.460938 114.707031 80.523438 127.277344 C 72.273438 138.28125 59.0625 143.511719 45.191406 137.300781 C 28.25 128.398438 42.113281 108.652344 50.933594 107.660156 C 43.671875 112.542969 39.589844 124.691406 52.832031 128.683594 C 63.371094 131.519531 70.476562 118.640625 72.015625 106.25 C 74.316406 94.457031 72.453125 79.316406 73.425781 66.636719 C 74.433594 53.136719 88.125 47.429688 95.75 54.769531 C 103.378906 47.429688 117.070312 53.140625 118.074219 66.636719 C 119.046875 79.3125 117.183594 94.457031 119.484375 106.25 C 121.023438 118.640625 128.128906 131.519531 138.667969 128.683594 C 151.910156 124.691406 147.828125 112.542969 140.566406 107.660156 C 149.386719 108.652344 163.257812 128.398438 146.308594 137.300781 C 132.4375 143.511719 119.226562 138.28125 110.976562 127.277344 Z M 110.976562 127.277344 "/>
</g>
</svg>
